{
	"asset":{
		"version":"2.0",
		"generator":""
	},
	"scenes":[{
		"nodes":[0]
	}],
	"nodes":[{
		"name":"Extrude.1",
		"translation":[0.0,
		0.0,
		0.0],
		"rotation":[0.0,
		0.0,
		0.7071067690849304,
		-0.7071067690849304],
		"scale":[1.0,
		1.0,
		1.0],
		"children":[1,
		2]
	},
	{
		"name":"Extrude.1-Mat",
		"mesh":0
	},
	{
		"name":"Extrude.1-Mat.1",
		"mesh":1
	}],
	"meshes":[{
		"name":"Extrude.1-Mat",
		"primitives":[{
			"attributes":{
				"POSITION":1,
				"NORMAL":2,
				"TEXCOORD_0":3
			},
			"indices":0,
			"material":0
		}]
	},
	{
		"name":"Extrude.1-Mat.1",
		"primitives":[{
			"attributes":{
				"POSITION":5,
				"NORMAL":6,
				"TEXCOORD_0":7
			},
			"indices":4,
			"material":1
		}]
	}],
	"accessors":[{
		"bufferView":0,
		"type":"SCALAR",
		"componentType":5123,
		"count":582,
		"byteOffset":0,
		"min":[0],
		"max":[581]
	},
	{
		"bufferView":1,
		"type":"VEC3",
		"componentType":5126,
		"count":582,
		"byteOffset":0,
		"min":[0.00175082019995898,
		-0.22395829856395722,
		-0.0367562510073185],
		"max":[0.07931850105524063,
		0.22661623358726502,
		0.03164374828338623]
	},
	{
		"bufferView":1,
		"type":"VEC3",
		"componentType":5126,
		"count":582,
		"byteOffset":12,
		"min":[0.442607581615448,
		-0.8908236622810364,
		0.0],
		"max":[1.0,
		0.896715521812439,
		0.0]
	},
	{
		"bufferView":1,
		"type":"VEC2",
		"componentType":5126,
		"count":582,
		"byteOffset":24,
		"min":[0.5930851697921753,
		0.19797390699386598],
		"max":[0.7069892287254334,
		0.47973328828811648]
	},
	{
		"bufferView":2,
		"type":"SCALAR",
		"componentType":5123,
		"count":19680,
		"byteOffset":0,
		"min":[0],
		"max":[19679]
	},
	{
		"bufferView":3,
		"type":"VEC3",
		"componentType":5126,
		"count":19680,
		"byteOffset":0,
		"min":[-0.027291256934404374,
		-0.2247582972049713,
		-0.037556249648332599],
		"max":[0.07931850105524063,
		0.2274162322282791,
		0.03244375064969063]
	},
	{
		"bufferView":3,
		"type":"VEC3",
		"componentType":5126,
		"count":19680,
		"byteOffset":12,
		"min":[-1.0,
		-1.0,
		-1.0],
		"max":[0.970496416091919,
		1.0,
		1.0]
	},
	{
		"bufferView":3,
		"type":"VEC2",
		"componentType":5126,
		"count":19680,
		"byteOffset":24,
		"min":[0.04111979156732559,
		0.05060318857431412],
		"max":[1.0411176681518555,
		1.0012145042419434]
	}],
	"bufferViews":[{
		"buffer":0,
		"byteOffset":0,
		"byteLength":1164,
		"target":34963
	},
	{
		"buffer":0,
		"byteOffset":1164,
		"byteLength":18624,
		"target":34962,
		"byteStride":32
	},
	{
		"buffer":1,
		"byteOffset":0,
		"byteLength":39360,
		"target":34963
	},
	{
		"buffer":1,
		"byteOffset":39360,
		"byteLength":629760,
		"target":34962,
		"byteStride":32
	}],
	"buffers":[{
		"uri":"data:application/octet-stream;base64,",
		"byteLength":19788
	},
	{
		"uri":"data:application/octet-stream;base64,",
		"byteLength":669120
	}],
	"materials":[{
		"pbrMetallicRoughness":{
			"baseColorFactor":[0.3176470588235292,
			0.0392156862745098,
			0.8666666666666668,
			1.0],
			"metallicFactor":0.0,
			"roughnessFactor":0.20000000298023225
		},
		"emissiveFactor":[0.0,
		0.0,
		0.0],
		"alphaMode":"OPAQUE",
		"doubleSided":false,
		"name":"Mat"
	},
	{
		"pbrMetallicRoughness":{
			"baseColorFactor":[0.0,
			0.0,
			0.0,
			1.0],
			"metallicFactor":0.0,
			"roughnessFactor":0.20000000298023225
		},
		"emissiveFactor":[0.0,
		0.0,
		0.0],
		"alphaMode":"OPAQUE",
		"doubleSided":false,
		"name":"Mat.1"
	}]
}