{
	"asset":{
		"version":"2.0",
		"generator":""
	},
	"scenes":[{
		"nodes":[0]
	}],
	"accessors":[{
		"count":864,
		"bufferView":0,
		"type":"SCALAR",
		"componentType":5123,
		"byteOffset":0,
		"min":[0],
		"max":[863]
	},
	{
		"count":864,
		"bufferView":1,
		"type":"VEC3",
		"componentType":5126,
		"byteOffset":0,
		"min":[-0.025588087737560273,
		-0.02977287396788597,
		-0.037556249648332599],
		"max":[0.08102167397737503,
		0.16440166532993318,
		0.03244375064969063]
	},
	{
		"count":864,
		"bufferView":1,
		"type":"VEC3",
		"componentType":5126,
		"byteOffset":12,
		"min":[-0.9999071955680847,
		-1.0,
		-1.0],
		"max":[0.0,
		1.0,
		1.0]
	},
	{
		"count":864,
		"bufferView":1,
		"type":"VEC2",
		"componentType":5126,
		"byteOffset":24,
		"min":[0.0036697247996926309,
		0.028794001787900926],
		"max":[1.0036697387695313,
		0.9748756885528565]
	},
	{
		"count":276,
		"bufferView":2,
		"type":"SCALAR",
		"componentType":5123,
		"byteOffset":0,
		"min":[0],
		"max":[275]
	},
	{
		"count":276,
		"bufferView":3,
		"type":"VEC3",
		"componentType":5126,
		"byteOffset":0,
		"min":[0.0034539904445409776,
		-0.02977287396788597,
		-0.037556249648332599],
		"max":[0.08102167397737503,
		0.16440166532993318,
		0.03244375064969063]
	},
	{
		"count":276,
		"bufferView":3,
		"type":"VEC3",
		"componentType":5126,
		"byteOffset":12,
		"min":[0.44822585582733157,
		-0.8897989392280579,
		0.0],
		"max":[0.999965488910675,
		0.8939204216003418,
		0.0]
	},
	{
		"count":276,
		"bufferView":3,
		"type":"VEC2",
		"componentType":5126,
		"byteOffset":24,
		"min":[0.3189500868320465,
		0.028794001787900926],
		"max":[0.7018467783927918,
		0.9748756885528565]
	}],
	"nodes":[{
		"translation":[0.0,
		0.0,
		0.0],
		"name":"Extrude.1",
		"rotation":[0.0,
		0.0,
		0.7071067690849304,
		-0.7071067690849304],
		"scale":[1.0,
		1.0,
		1.0],
		"children":[1,
		2]
	},
	{
		"name":"Extrude.1-Mat.1",
		"mesh":0
	},
	{
		"name":"Extrude.1-Mat",
		"mesh":1
	}],
	"meshes":[{
		"name":"Extrude.1-Mat.1",
		"primitives":[{
			"attributes":{
				"POSITION":1,
				"NORMAL":2,
				"TEXCOORD_0":3
			},
			"indices":0,
			"material":0
		}]
	},
	{
		"name":"Extrude.1-Mat",
		"primitives":[{
			"attributes":{
				"POSITION":5,
				"NORMAL":6,
				"TEXCOORD_0":7
			},
			"indices":4,
			"material":1
		}]
	}],
	"bufferViews":[{
		"buffer":0,
		"byteOffset":0,
		"byteLength":1728,
		"target":34963
	},
	{
		"buffer":0,
		"byteOffset":1728,
		"byteLength":27648,
		"target":34962,
		"byteStride":32
	},
	{
		"buffer":1,
		"byteOffset":0,
		"byteLength":552,
		"target":34963
	},
	{
		"buffer":1,
		"byteOffset":552,
		"byteLength":8832,
		"target":34962,
		"byteStride":32
	}],
	"buffers":[{
		"uri":"data:application/octet-stream;base64,",
		"byteLength":29376
	},
	{
		"uri":"data:application/octet-stream;base64,",
		"byteLength":9384
	}],
	"materials":[{
		"pbrMetallicRoughness":{
			"baseColorFactor":[0.9098039215686273,
			0.8784313725490195,
			0.803921568627451,
			1.0],
			"metallicFactor":0.0,
			"roughnessFactor":0.20000000298023225
		},
		"emissiveFactor":[0.0,
		0.0,
		0.0],
		"alphaMode":"OPAQUE",
		"doubleSided":false,
		"name":"Mat.1"
	},
	{
		"pbrMetallicRoughness":{
			"baseColorFactor":[0.3176470588235292,
			0.0392156862745098,
			0.8666666666666668,
			1.0],
			"metallicFactor":0.0,
			"roughnessFactor":0.20000000298023225
		},
		"emissiveFactor":[0.0,
		0.0,
		0.0],
		"alphaMode":"OPAQUE",
		"doubleSided":false,
		"name":"Mat"
	}]
}