{
	"asset":{
		"version":"2.0",
		"generator":"Adobe Illustrator",
		"copyright":""
	},
	"scenes":[{
		"nodes":[0]
	}],
	"nodes":[{
		"name":"Scene 0",
		"children":[1]
	},
	{
		"name":"Mesh",
		"mesh":0,
		"translation":[-0.025843339040875436,
		0.03243587166070938,
		-0.002571763936430216],
		"rotation":[0.0,
		0.0,
		0.0,
		-1.0],
		"scale":[1.0,
		1.0,
		1.0]
	}],
	"meshes":[{
		"name":"Mesh",
		"primitives":[{
			"attributes":{
				"POSITION":1,
				"NORMAL":2,
				"TEXCOORD_0":3
			},
			"indices":0,
			"material":0
		}]
	}],
	"accessors":[{
		"bufferView":0,
		"type":"SCALAR",
		"componentType":5123,
		"count":6936,
		"byteOffset":0,
		"min":[0],
		"max":[6935]
	},
	{
		"bufferView":1,
		"type":"VEC3",
		"componentType":5126,
		"count":6936,
		"byteOffset":0,
		"min":[-0.05701456964015961,
		-0.08787239342927933,
		-0.017428236082196237],
		"max":[0.03890886530280113,
		0.08683834224939347,
		0.022571763023734094]
	},
	{
		"bufferView":1,
		"type":"VEC3",
		"componentType":5126,
		"count":6936,
		"byteOffset":12,
		"min":[-1.0,
		-1.0,
		-1.0],
		"max":[1.0,
		1.0,
		1.0]
	},
	{
		"bufferView":1,
		"type":"VEC2",
		"componentType":5126,
		"count":6936,
		"byteOffset":24,
		"min":[0.000030517578125,
		0.34270477294921877],
		"max":[1.0,
		1.0]
	}],
	"bufferViews":[{
		"buffer":0,
		"byteOffset":0,
		"byteLength":13872,
		"target":34963
	},
	{
		"buffer":0,
		"byteOffset":13872,
		"byteLength":221952,
		"byteStride":32,
		"target":34962
	}],
	"buffers":[{
		"uri":"data:application/octet-stream;base64,",
		"byteLength":235824
	}],
	"materials":[{
		"pbrMetallicRoughness":{
			"baseColorFactor":[0.9062500596046448,
			0.875,
			0.80078125,
			1.0],
			"metallicFactor":0.0,
			"roughnessFactor":1.0
		},
		"emissiveFactor":[0.0,
		0.0,
		0.0],
		"alphaMode":"OPAQUE",
		"doubleSided":true,
		"name":"Mat"
	}]
}